<?xml version="1.0" encoding="UTF-8"?>
<svg id="Layer_2" data-name="Layer 2" xmlns="http://www.w3.org/2000/svg" viewBox="0 0 488.11 98">
  <defs>
    <style>
      .cls-1 {
        fill: #fff;
      }

      .cls-2 {
        fill: #ed2024;
      }
    </style>
  </defs>
  <g id="Layer_1-2" data-name="Layer 1">
    <g>
      <path class="cls-2" d="M49.34,1.6v10.57h-17.85v49.11h-12.55V12.17H1V1.6h48.34Z"/>
      <path class="cls-2" d="M98.17,35.2h-28.99v15.34h33.04v10.73h-45.22V1.6h43.76v10.57h-31.58v12.67h28.99v10.36Z"/>
      <path class="cls-2" d="M137.64,61.27h-25.71V1.6h25.71c3.7.05,6.77.49,9.23,1.3,4.18,1.38,7.57,3.9,10.16,7.57,2.08,2.97,3.5,6.18,4.25,9.64.76,3.46,1.13,6.75,1.13,9.88,0,7.94-1.59,14.66-4.78,20.16-4.32,7.42-10.99,11.13-20,11.13ZM146.91,16.82c-1.92-3.24-5.71-4.86-11.38-4.86h-11.5v38.95h11.5c5.88,0,9.99-2.9,12.31-8.7,1.27-3.18,1.9-6.98,1.9-11.38,0-6.07-.95-10.74-2.83-14.01Z"/>
      <path class="cls-2" d="M191.55,33.66h-8.38l-4.44-7.72-4.46,7.72h-8.17l8.78-13.03-8.4-12.65h8.24l4.3,7.46,4.2-7.46h8l-8.45,12.53,8.78,13.15Z"/>
      <path class="cls-1" d="M212.28,61.27V1.58h8.62l19.57,52.65h.17L259.88,1.58h8.54v59.7h-5.64V8.04h-.17l-19.57,53.23h-5.31l-19.65-53.23h-.17v53.23h-5.64Z"/>
      <path class="cls-1" d="M281.6,61.27V1.58h39.72v4.81h-34.08v21.56h30.76v4.81h-30.76v23.71h34.91v4.81h-40.54Z"/>
      <path class="cls-1" d="M374.63,18.9c-1.16-5.08-3.32-8.71-6.47-10.86-3.15-2.16-7.27-3.23-12.35-3.23-3.59,0-6.69.72-9.29,2.16-2.6,1.44-4.74,3.37-6.43,5.8-1.69,2.43-2.93,5.24-3.73,8.42-.8,3.18-1.2,6.54-1.2,10.07,0,3.32.34,6.58,1.04,9.78.69,3.21,1.84,6.07,3.44,8.58,1.6,2.52,3.76,4.55,6.47,6.09,2.71,1.55,6.11,2.32,10.2,2.32,2.54,0,4.86-.42,6.96-1.24,2.1-.83,3.94-1.98,5.51-3.44,1.58-1.46,2.9-3.19,3.98-5.18,1.08-1.99,1.89-4.17,2.45-6.55h5.89c-.66,2.87-1.63,5.6-2.9,8.17-1.27,2.57-2.94,4.82-5.02,6.76-2.07,1.94-4.59,3.47-7.54,4.6-2.96,1.13-6.43,1.7-10.41,1.7-4.59,0-8.51-.84-11.77-2.53-3.26-1.69-5.93-3.97-8-6.84-2.07-2.87-3.58-6.2-4.52-9.99-.94-3.79-1.41-7.81-1.41-12.06,0-5.69.71-10.53,2.11-14.51,1.41-3.98,3.36-7.23,5.85-9.74,2.49-2.51,5.42-4.34,8.79-5.47,3.37-1.13,7.05-1.7,11.03-1.7,3.04,0,5.87.4,8.5,1.2,2.62.8,4.95,2,6.96,3.61,2.02,1.6,3.67,3.58,4.97,5.93,1.3,2.35,2.2,5.07,2.69,8.17h-5.8Z"/>
      <path class="cls-2" d="M13.81,92.29h-4.55l-2.41-4.19-2.42,4.19H0l4.77-7.07L.21,78.35h4.47l2.33,4.05,2.28-4.05h4.34l-4.59,6.8,4.77,7.14Z"/>
      <path class="cls-1" d="M36.35,80.67v3.37h-13.87v-3.37h13.87ZM22.48,90.02v-3.37h13.87v3.37h-13.87Z"/>
      <path class="cls-1" d="M49.61,73.29v3.37h-3.7v-3.37h3.7ZM49.61,78.33v13.96h-3.7v-13.96h3.7Z"/>
      <path class="cls-1" d="M59.72,81.03c-1.24,0-2.09.53-2.55,1.58-.24.56-.36,1.26-.36,2.13v7.56h-3.64v-13.94h3.52v2.04c.47-.72.91-1.23,1.33-1.55.75-.56,1.7-.85,2.86-.85,1.44,0,2.62.38,3.54,1.13.92.76,1.38,2.01,1.38,3.76v9.4h-3.74v-8.49c0-.73-.1-1.3-.29-1.69-.36-.72-1.04-1.08-2.05-1.08Z"/>
      <path class="cls-1" d="M81.88,73.43v18.86h-3.55v-1.93c-.52.83-1.11,1.43-1.78,1.81-.67.38-1.49.56-2.49.56-1.63,0-3-.66-4.12-1.98-1.11-1.32-1.67-3.01-1.67-5.08,0-2.38.55-4.26,1.65-5.62,1.1-1.37,2.56-2.05,4.4-2.05.85,0,1.6.19,2.25.56s1.19.89,1.6,1.54v-6.66h3.7ZM72.04,85.4c0,1.29.26,2.32.77,3.09.5.78,1.27,1.17,2.31,1.17s1.82-.38,2.36-1.15c.54-.77.81-1.76.81-2.98,0-1.71-.43-2.93-1.29-3.66-.53-.44-1.14-.67-1.84-.67-1.07,0-1.85.4-2.35,1.21-.5.81-.75,1.81-.75,3Z"/>
      <path class="cls-1" d="M97.15,88.19c-.09.83-.53,1.67-1.29,2.52-1.2,1.36-2.87,2.04-5.02,2.04-1.78,0-3.34-.57-4.7-1.72-1.36-1.14-2.04-3.01-2.04-5.58,0-2.42.61-4.27,1.84-5.56,1.23-1.29,2.82-1.93,4.77-1.93,1.16,0,2.21.22,3.14.65.93.44,1.7,1.12,2.31,2.06.55.83.9,1.79,1.06,2.88.09.64.13,1.56.12,2.77h-9.56c.05,1.4.49,2.38,1.32,2.95.5.35,1.11.52,1.82.52.75,0,1.36-.21,1.83-.64.26-.23.48-.55.68-.96h3.73ZM93.54,83.91c-.06-.96-.35-1.7-.88-2.2-.52-.5-1.18-.75-1.95-.75-.85,0-1.5.27-1.97.79s-.76,1.25-.88,2.15h5.67Z"/>
      <path class="cls-1" d="M111.49,79.82c1.13,1.2,1.69,2.97,1.69,5.3,0,2.46-.55,4.33-1.66,5.62s-2.53,1.93-4.27,1.93c-1.11,0-2.03-.28-2.77-.83-.4-.31-.79-.76-1.18-1.35v7.28h-3.61v-19.46h3.5v2.06c.39-.61.81-1.08,1.26-1.44.81-.62,1.78-.94,2.9-.94,1.63,0,3.01.6,4.15,1.81ZM109.41,85.31c0-1.08-.25-2.03-.74-2.86-.49-.83-1.29-1.24-2.39-1.24-1.32,0-2.23.63-2.73,1.88-.26.67-.38,1.51-.38,2.54,0,1.62.43,2.76,1.29,3.42.51.38,1.12.58,1.82.58,1.02,0,1.79-.39,2.33-1.18s.8-1.83.8-3.14Z"/>
      <path class="cls-1" d="M127.77,88.19c-.09.83-.53,1.67-1.29,2.52-1.2,1.36-2.87,2.04-5.02,2.04-1.78,0-3.34-.57-4.7-1.72-1.36-1.14-2.04-3.01-2.04-5.58,0-2.42.61-4.27,1.84-5.56,1.23-1.29,2.82-1.93,4.77-1.93,1.16,0,2.21.22,3.14.65.93.44,1.7,1.12,2.31,2.06.55.83.9,1.79,1.06,2.88.09.64.13,1.56.12,2.77h-9.56c.05,1.4.49,2.38,1.32,2.95.5.35,1.11.52,1.82.52.75,0,1.36-.21,1.83-.64.26-.23.48-.55.68-.96h3.73ZM124.15,83.91c-.06-.96-.35-1.7-.88-2.2-.52-.5-1.18-.75-1.95-.75-.85,0-1.5.27-1.97.79s-.76,1.25-.88,2.15h5.67Z"/>
      <path class="cls-1" d="M136.98,81.03c-1.24,0-2.09.53-2.55,1.58-.24.56-.36,1.26-.36,2.13v7.56h-3.64v-13.94h3.52v2.04c.47-.72.91-1.23,1.33-1.55.75-.56,1.7-.85,2.86-.85,1.44,0,2.62.38,3.54,1.13.92.76,1.38,2.01,1.38,3.76v9.4h-3.74v-8.49c0-.73-.1-1.3-.29-1.69-.36-.72-1.04-1.08-2.05-1.08Z"/>
      <path class="cls-1" d="M159.14,73.43v18.86h-3.55v-1.93c-.52.83-1.11,1.43-1.78,1.81-.67.38-1.49.56-2.49.56-1.63,0-3-.66-4.12-1.98-1.11-1.32-1.67-3.01-1.67-5.08,0-2.38.55-4.26,1.65-5.62,1.1-1.37,2.56-2.05,4.4-2.05.85,0,1.6.19,2.25.56s1.19.89,1.6,1.54v-6.66h3.7ZM149.3,85.4c0,1.29.26,2.32.77,3.09.5.78,1.27,1.17,2.31,1.17s1.82-.38,2.36-1.15c.54-.77.81-1.76.81-2.98,0-1.71-.43-2.93-1.29-3.66-.53-.44-1.14-.67-1.84-.67-1.07,0-1.85.4-2.35,1.21-.5.81-.75,1.81-.75,3Z"/>
      <path class="cls-1" d="M174.41,88.19c-.09.83-.53,1.67-1.29,2.52-1.2,1.36-2.87,2.04-5.02,2.04-1.78,0-3.34-.57-4.7-1.72-1.36-1.14-2.04-3.01-2.04-5.58,0-2.42.61-4.27,1.84-5.56,1.23-1.29,2.82-1.93,4.77-1.93,1.16,0,2.21.22,3.14.65.93.44,1.7,1.12,2.31,2.06.55.83.9,1.79,1.06,2.88.09.64.13,1.56.12,2.77h-9.56c.05,1.4.49,2.38,1.32,2.95.5.35,1.11.52,1.82.52.75,0,1.36-.21,1.83-.64.26-.23.48-.55.68-.96h3.73ZM170.8,83.91c-.06-.96-.35-1.7-.88-2.2-.52-.5-1.18-.75-1.95-.75-.85,0-1.5.27-1.97.79s-.76,1.25-.88,2.15h5.67Z"/>
      <path class="cls-1" d="M183.62,81.03c-1.24,0-2.09.53-2.55,1.58-.24.56-.36,1.26-.36,2.13v7.56h-3.64v-13.94h3.52v2.04c.47-.72.91-1.23,1.33-1.55.75-.56,1.7-.85,2.86-.85,1.44,0,2.62.38,3.54,1.13.92.76,1.38,2.01,1.38,3.76v9.4h-3.74v-8.49c0-.73-.1-1.3-.29-1.69-.36-.72-1.04-1.08-2.05-1.08Z"/>
      <path class="cls-1" d="M199.47,89.69v2.73l-1.73.06c-1.73.06-2.9-.24-3.54-.9-.41-.42-.61-1.06-.61-1.93v-8.6h-1.95v-2.6h1.95v-3.89h3.61v3.89h2.27v2.6h-2.27v7.38c0,.57.07.93.22,1.07.15.14.59.21,1.33.21.11,0,.23,0,.35,0,.12,0,.25-.01.37-.02Z"/>
      <path class="cls-1" d="M201.89,73.41h3.65v18.88h-3.65v-18.88Z"/>
      <path class="cls-1" d="M214.77,88.62l2.88-10.3h3.88l-4.79,13.73c-.92,2.65-1.65,4.29-2.19,4.93s-1.61.95-3.23.95c-.32,0-.58,0-.78,0-.2,0-.49-.02-.88-.04v-2.92l.46.03c.36.02.7,0,1.02-.04.32-.04.6-.14.82-.29.21-.15.41-.45.6-.91.18-.46.26-.74.22-.85l-5.12-14.58h4.06l3.05,10.3Z"/>
      <path class="cls-1" d="M242.62,80.09c1.18,1.48,1.77,3.22,1.77,5.24s-.59,3.8-1.77,5.26c-1.18,1.46-2.97,2.18-5.37,2.18s-4.19-.73-5.37-2.18-1.77-3.21-1.77-5.26.59-3.76,1.77-5.24c1.18-1.48,2.97-2.22,5.37-2.22s4.19.74,5.37,2.22ZM237.24,80.96c-1.07,0-1.89.38-2.47,1.13s-.86,1.83-.86,3.23.29,2.48.86,3.24,1.4,1.14,2.47,1.14,1.89-.38,2.46-1.14.86-1.84.86-3.24-.29-2.48-.86-3.23-1.39-1.13-2.46-1.13Z"/>
      <path class="cls-1" d="M254.02,81.69c-1.47,0-2.46.48-2.96,1.43-.28.54-.42,1.37-.42,2.49v6.67h-3.68v-13.96h3.48v2.43c.56-.93,1.05-1.57,1.47-1.91.68-.57,1.57-.86,2.66-.86.07,0,.13,0,.17,0,.05,0,.15.01.31.02v3.74c-.23-.03-.44-.04-.61-.05-.18,0-.32-.01-.44-.01Z"/>
      <path class="cls-1" d="M261.16,94.74c.39.33,1.05.5,1.99.5,1.31,0,2.19-.44,2.64-1.32.29-.56.44-1.51.44-2.84v-.9c-.35.6-.73,1.05-1.13,1.35-.73.56-1.67.83-2.83.83-1.79,0-3.23-.63-4.3-1.89s-1.61-2.97-1.61-5.12.52-3.82,1.55-5.23c1.03-1.41,2.5-2.12,4.39-2.12.7,0,1.31.11,1.83.32.89.37,1.61,1.04,2.15,2.02v-2.01h3.55v13.25c0,1.8-.3,3.16-.91,4.07-1.04,1.57-3.04,2.36-6,2.36-1.79,0-3.24-.35-4.37-1.05-1.13-.7-1.75-1.75-1.87-3.14h3.97c.1.43.27.73.5.92ZM260.54,87.52c.5,1.18,1.38,1.77,2.66,1.77.85,0,1.58-.32,2.17-.97.59-.64.88-1.67.88-3.08,0-1.32-.28-2.33-.84-3.02-.56-.69-1.31-1.04-2.25-1.04-1.28,0-2.17.6-2.65,1.81-.26.64-.38,1.43-.38,2.37,0,.81.14,1.53.41,2.17Z"/>
      <path class="cls-1" d="M273.76,79.84c.96-1.23,2.62-1.84,4.97-1.84,1.53,0,2.89.3,4.07.91,1.19.61,1.78,1.75,1.78,3.43v6.41c0,.44,0,.98.03,1.61.03.48.1.8.22.97.12.17.3.31.54.42v.54h-3.97c-.11-.28-.19-.55-.23-.79-.04-.25-.08-.53-.1-.85-.5.55-1.08,1.01-1.74,1.4-.79.45-1.67.68-2.66.68-1.26,0-2.31-.36-3.13-1.08-.83-.72-1.24-1.74-1.24-3.07,0-1.72.66-2.96,1.99-3.73.73-.42,1.79-.72,3.2-.9l1.24-.15c.67-.08,1.16-.19,1.45-.32.52-.22.78-.57.78-1.04,0-.57-.2-.97-.6-1.18-.4-.22-.98-.33-1.75-.33-.86,0-1.47.21-1.83.64-.26.32-.43.74-.51,1.28h-3.52c.08-1.22.42-2.22,1.02-3.01ZM276.48,89.65c.34.28.76.42,1.26.42.79,0,1.51-.23,2.17-.69.66-.46,1.01-1.3,1.03-2.52v-1.36c-.23.15-.46.26-.7.35s-.56.17-.97.25l-.82.15c-.77.14-1.32.3-1.65.5-.56.33-.85.85-.85,1.55,0,.62.17,1.07.53,1.35Z"/>
      <path class="cls-1" d="M294.4,81.03c-1.24,0-2.09.53-2.55,1.58-.24.56-.36,1.26-.36,2.13v7.56h-3.64v-13.94h3.52v2.04c.47-.72.91-1.23,1.33-1.55.75-.56,1.7-.85,2.86-.85,1.44,0,2.62.38,3.54,1.13.92.76,1.38,2.01,1.38,3.76v9.4h-3.74v-8.49c0-.73-.1-1.3-.29-1.69-.36-.72-1.04-1.08-2.05-1.08Z"/>
      <path class="cls-1" d="M307.61,73.29v3.37h-3.7v-3.37h3.7ZM307.61,78.33v13.96h-3.7v-13.96h3.7Z"/>
      <path class="cls-1" d="M321.92,92.29h-12.05v-2.84l7.16-8.15h-6.67v-2.97h11.32v3.04l-7.08,7.93h7.33v3Z"/>
      <path class="cls-1" d="M336.21,88.19c-.09.83-.53,1.67-1.29,2.52-1.2,1.36-2.87,2.04-5.02,2.04-1.78,0-3.34-.57-4.7-1.72-1.36-1.14-2.04-3.01-2.04-5.58,0-2.42.61-4.27,1.84-5.56s2.82-1.93,4.77-1.93c1.16,0,2.21.22,3.14.65s1.7,1.12,2.31,2.06c.55.83.9,1.79,1.06,2.88.09.64.13,1.56.12,2.77h-9.56c.05,1.4.49,2.38,1.32,2.95.5.35,1.11.52,1.82.52.75,0,1.36-.21,1.83-.64.26-.23.48-.55.68-.96h3.73ZM332.6,83.91c-.06-.96-.35-1.7-.88-2.2-.53-.5-1.18-.75-1.95-.75-.85,0-1.5.27-1.97.79-.47.53-.76,1.25-.88,2.15h5.67Z"/>
      <path class="cls-1" d="M351.56,73.43v18.86h-3.55v-1.93c-.52.83-1.12,1.43-1.78,1.81-.67.38-1.49.56-2.48.56-1.63,0-3-.66-4.12-1.98-1.11-1.32-1.67-3.01-1.67-5.08,0-2.38.55-4.26,1.65-5.62,1.1-1.37,2.56-2.05,4.4-2.05.85,0,1.6.19,2.25.56.66.37,1.19.89,1.6,1.54v-6.66h3.7ZM341.72,85.4c0,1.29.26,2.32.77,3.09.5.78,1.27,1.17,2.31,1.17s1.82-.38,2.36-1.15c.54-.77.81-1.76.81-2.98,0-1.71-.43-2.93-1.29-3.66-.53-.44-1.14-.67-1.84-.67-1.07,0-1.85.4-2.35,1.21-.5.81-.75,1.81-.75,3Z"/>
      <path class="cls-1" d="M376.18,73.41v3.34h-5.65v15.54h-3.97v-15.54h-5.67v-3.34h15.29Z"/>
      <path class="cls-1" d="M391.63,84.04h-9.17v4.85h10.45v3.39h-14.31v-18.88h13.85v3.34h-9.99v4.01h9.17v3.28Z"/>
      <path class="cls-1" d="M404.12,92.29h-8.13v-18.88h8.13c1.17.02,2.14.15,2.92.41,1.32.44,2.4,1.23,3.21,2.4.66.94,1.11,1.96,1.35,3.05.24,1.09.36,2.14.36,3.13,0,2.51-.5,4.64-1.51,6.38-1.37,2.35-3.48,3.52-6.33,3.52ZM407.05,78.22c-.61-1.02-1.81-1.54-3.6-1.54h-3.64v12.32h3.64c1.86,0,3.16-.92,3.89-2.75.4-1.01.6-2.21.6-3.6,0-1.92-.3-3.4-.9-4.43Z"/>
      <path class="cls-1" d="M433.88,88.19c-.09.83-.53,1.67-1.29,2.52-1.2,1.36-2.87,2.04-5.02,2.04-1.78,0-3.34-.57-4.7-1.72-1.36-1.14-2.04-3.01-2.04-5.58,0-2.42.61-4.27,1.84-5.56s2.82-1.93,4.77-1.93c1.16,0,2.21.22,3.14.65s1.7,1.12,2.31,2.06c.55.83.9,1.79,1.06,2.88.09.64.13,1.56.12,2.77h-9.56c.05,1.4.49,2.38,1.32,2.95.5.35,1.11.52,1.82.52.75,0,1.36-.21,1.83-.64.26-.23.48-.55.68-.96h3.73ZM430.26,83.91c-.06-.96-.35-1.7-.88-2.2-.53-.5-1.18-.75-1.95-.75-.85,0-1.5.27-1.97.79-.47.53-.76,1.25-.88,2.15h5.67Z"/>
      <path class="cls-1" d="M435.15,78.33h4.1l2.91,10.3,2.97-10.3h3.92l-5.04,13.96h-3.86l-5.01-13.96Z"/>
      <path class="cls-1" d="M463.06,88.19c-.09.83-.53,1.67-1.29,2.52-1.2,1.36-2.87,2.04-5.02,2.04-1.78,0-3.34-.57-4.7-1.72-1.36-1.14-2.04-3.01-2.04-5.58,0-2.42.61-4.27,1.84-5.56s2.82-1.93,4.77-1.93c1.16,0,2.21.22,3.14.65s1.7,1.12,2.31,2.06c.55.83.9,1.79,1.06,2.88.09.64.13,1.56.12,2.77h-9.56c.05,1.4.49,2.38,1.32,2.95.5.35,1.11.52,1.82.52.75,0,1.36-.21,1.83-.64.26-.23.48-.55.68-.96h3.73ZM459.45,83.91c-.06-.96-.35-1.7-.88-2.2-.53-.5-1.18-.75-1.95-.75-.85,0-1.5.27-1.97.79-.47.53-.76,1.25-.88,2.15h5.67Z"/>
      <path class="cls-1" d="M472.27,81.03c-1.24,0-2.09.53-2.55,1.58-.24.56-.36,1.26-.36,2.13v7.56h-3.64v-13.94h3.52v2.04c.47-.72.91-1.23,1.33-1.55.75-.56,1.7-.85,2.86-.85,1.44,0,2.62.38,3.54,1.13.92.76,1.38,2.01,1.38,3.76v9.4h-3.74v-8.49c0-.73-.1-1.3-.29-1.69-.36-.72-1.04-1.08-2.05-1.08Z"/>
      <path class="cls-1" d="M488.11,89.69v2.73l-1.73.06c-1.72.06-2.9-.24-3.54-.9-.41-.42-.62-1.06-.62-1.93v-8.6h-1.95v-2.6h1.95v-3.89h3.61v3.89h2.27v2.6h-2.27v7.38c0,.57.07.93.22,1.07.15.14.59.21,1.33.21.11,0,.23,0,.35,0,.12,0,.25-.01.37-.02Z"/>
    </g>
  </g>
</svg>